<?xml version="1.0" encoding="UTF-8"?>
<svg width="16px" height="28px" viewBox="0 0 16 28" version="1.1" xmlns="http://www.w3.org/2000/svg" xmlns:xlink="http://www.w3.org/1999/xlink">
    <!-- Generator: Sketch 50.2 (55047) - http://www.bohemiancoding.com/sketch -->
    <title>logo</title>
    <desc>Created with Sketch.</desc>
    <defs></defs>
    <g id="Design-Mobile" stroke="none" stroke-width="1" fill="none" fill-rule="evenodd">
        <g id="Android" transform="translate(-23.000000, -21.000000)">
            <g id="logo" transform="translate(31.000000, 35.000000) rotate(-45.000000) translate(-31.000000, -35.000000) translate(21.000000, 25.000000)">
                <path d="M9.53263034,13.395 C9.53344582,13.3634274 9.53385594,13.3317592 9.53385594,13.3 C9.53385594,13.2536483 9.53298236,13.2074904 9.53125,13.1615404 L9.53125,5.83845956 C9.53298236,5.79250957 9.53385594,5.7463517 9.53385594,5.7 C9.53385594,5.68811217 9.53379847,5.67623709 9.5336838,5.664375 C9.52476415,4.7416992 9.16969815,3.89759663 8.58588626,3.24359771 C8.22389878,2.89975784 8,2.42471874 8,1.9 C8,0.850658975 8.8954305,0 10,0 C11.1045695,0 12,0.850658975 12,1.9 C12,2.35756732 11.8297416,2.77735696 11.5461263,3.1053125 L11.5489619,3.1053125 C11.5385437,3.11589797 11.5281885,3.12654008 11.5178969,3.1372383 C11.4999156,3.15712921 11.4815086,3.17666267 11.4626892,3.19582593 C10.8531371,3.8562426 10.4806665,4.71907165 10.4715281,5.664375 C10.4714134,5.67623709 10.4713559,5.68811217 10.4713559,5.7 C10.4713559,5.75484065 10.4725788,5.80940997 10.475,5.86368469 L10.475,13.1363153 C10.4725788,13.19059 10.4713559,13.2451593 10.4713559,13.3 C10.4713559,13.3317592 10.4717661,13.3634274 10.4725815,13.3950001 C10.4963964,14.3170361 10.8659228,15.15761 11.4626885,15.8041733 C11.4815086,15.8233373 11.4999156,15.8428708 11.5178969,15.8627617 C11.5281885,15.8734599 11.5385437,15.884102 11.5489619,15.8946875 L11.5461263,15.8946875 C11.8297416,16.222643 12,16.6424327 12,17.1 C12,18.149341 11.1045695,19 10,19 C8.8954305,19 8,18.149341 8,17.1 C8,16.5752813 8.22389878,16.1002422 8.58588626,15.7564023 C9.15715201,15.1164578 9.50939775,14.2944926 9.53263034,13.3950001 Z" id="Combined-Shape" fill="#4FE6C4"></path>
                <path d="M0.585886256,16.5856866 C1.17720375,15.8884163 1.53385594,14.9858584 1.53385594,14 C1.53385594,13.0141416 1.17720375,12.1115837 0.585886256,11.4143134 C0.223898785,11.0523767 0,10.5523355 0,10 C0,8.8954305 0.8954305,8 2,8 C3.1045695,8 4,8.8954305 4,10 C4,10.4816498 3.82974159,10.9235336 3.54612625,11.26875 L3.54896187,11.26875 C3.53854371,11.2798926 3.52818852,11.2910948 3.51789688,11.3023561 C3.49991539,11.3232942 3.48150813,11.343856 3.46268852,11.3640281 C2.84548813,12.0679261 2.47135594,12.9902714 2.47135594,14 C2.47135594,15.0097286 2.84548813,15.9320739 3.46268852,16.6359719 C3.48150813,16.656144 3.49991539,16.6767058 3.51789688,16.6976439 C3.52818852,16.7089052 3.53854371,16.7201074 3.54896187,16.73125 L3.54612625,16.73125 C3.82974159,17.0764664 4,17.5183502 4,18 C4,19.1045695 3.1045695,20 2,20 C0.8954305,20 0,19.1045695 0,18 C0,17.4476645 0.223898785,16.9476233 0.585886256,16.5856866 Z" id="Combined-Shape" fill="#FFFFFF"></path>
                <path d="M16.5858863,8.58568663 C17.1772037,7.88841625 17.5338559,6.98585842 17.5338559,6 C17.5338559,5.01414158 17.1772037,4.11158375 16.5858863,3.41431337 C16.2238988,3.05237668 16,2.55233552 16,2 C16,0.8954305 16.8954305,0 18,0 C19.1045695,0 20,0.8954305 20,2 C20,2.48164981 19.8297416,2.92353365 19.5461263,3.26875 L19.5489619,3.26875 C19.5385437,3.2798926 19.5281885,3.29109482 19.5178969,3.30235611 C19.4999154,3.32329417 19.4815081,3.34385596 19.4626885,3.36402806 C18.8454881,4.06792612 18.4713559,4.99027143 18.4713559,6 C18.4713559,7.00972857 18.8454881,7.93207388 19.4626885,8.63597194 C19.4815081,8.65614404 19.4999154,8.67670583 19.5178969,8.69764389 C19.5281885,8.70890518 19.5385437,8.7201074 19.5489619,8.73125 L19.5461263,8.73125 C19.8297416,9.07646635 20,9.51835019 20,10 C20,11.1045695 19.1045695,12 18,12 C16.8954305,12 16,11.1045695 16,10 C16,9.44766448 16.2238988,8.94762332 16.5858863,8.58568663 Z" id="Combined-Shape-Copy-3" fill="#FFFFFF"></path>
            </g>
        </g>
    </g>
</svg>